<?xml version="1.0" encoding="utf-8" standalone="no"?>
<!DOCTYPE svg PUBLIC "-//W3C//DTD SVG 1.1//EN"
  "http://www.w3.org/Graphics/SVG/1.1/DTD/svg11.dtd">
<!-- Created with matplotlib (https://matplotlib.org/) -->
<svg height="592.098375pt" version="1.1" viewBox="0 0 777.100938 592.098375" width="777.100938pt" xmlns="http://www.w3.org/2000/svg" xmlns:xlink="http://www.w3.org/1999/xlink">
 <defs>
  <style type="text/css">
*{stroke-linecap:butt;stroke-linejoin:round;}
  </style>
 </defs>
 <g id="figure_1">
  <g id="patch_1">
   <path d="M 0 592.098375 
L 777.100938 592.098375 
L 777.100938 0 
L 0 0 
z
" style="fill:#ffffff;"/>
  </g>
  <g id="axes_1">
   <g id="patch_2">
    <path d="M 52.160938 264.238125 
L 766.400938 264.238125 
L 766.400938 22.318125 
L 52.160938 22.318125 
z
" style="fill:#ffffff;"/>
   </g>
   <g id="matplotlib.axis_1">
    <g id="xtick_1">
     <g id="line2d_1">
      <defs>
       <path d="M 0 0 
L 0 3.5 
" id="m336556e6a6" style="stroke:#000000;stroke-width:0.8;"/>
      </defs>
      <g>
       <use style="stroke:#000000;stroke-width:0.8;" x="84.626392" xlink:href="#m336556e6a6" y="264.238125"/>
      </g>
     </g>
     <g id="text_1">
      <!-- 0.00000 -->
      <defs>
       <path d="M 31.78125 66.40625 
Q 24.171875 66.40625 20.328125 58.90625 
Q 16.5 51.421875 16.5 36.375 
Q 16.5 21.390625 20.328125 13.890625 
Q 24.171875 6.390625 31.78125 6.390625 
Q 39.453125 6.390625 43.28125 13.890625 
Q 47.125 21.390625 47.125 36.375 
Q 47.125 51.421875 43.28125 58.90625 
Q 39.453125 66.40625 31.78125 66.40625 
z
M 31.78125 74.21875 
Q 44.046875 74.21875 50.515625 64.515625 
Q 56.984375 54.828125 56.984375 36.375 
Q 56.984375 17.96875 50.515625 8.265625 
Q 44.046875 -1.421875 31.78125 -1.421875 
Q 19.53125 -1.421875 13.0625 8.265625 
Q 6.59375 17.96875 6.59375 36.375 
Q 6.59375 54.828125 13.0625 64.515625 
Q 19.53125 74.21875 31.78125 74.21875 
z
" id="DejaVuSans-48"/>
       <path d="M 10.6875 12.40625 
L 21 12.40625 
L 21 0 
L 10.6875 0 
z
" id="DejaVuSans-46"/>
      </defs>
      <g transform="translate(63.94983 278.836563)scale(0.1 -0.1)">
       <use xlink:href="#DejaVuSans-48"/>
       <use x="63.623047" xlink:href="#DejaVuSans-46"/>
       <use x="95.410156" xlink:href="#DejaVuSans-48"/>
       <use x="159.033203" xlink:href="#DejaVuSans-48"/>
       <use x="222.65625" xlink:href="#DejaVuSans-48"/>
       <use x="286.279297" xlink:href="#DejaVuSans-48"/>
       <use x="349.902344" xlink:href="#DejaVuSans-48"/>
      </g>
     </g>
    </g>
    <g id="xtick_2">
     <g id="line2d_2">
      <g>
       <use style="stroke:#000000;stroke-width:0.8;" x="166.159712" xlink:href="#m336556e6a6" y="264.238125"/>
      </g>
     </g>
     <g id="text_2">
      <!-- 0.00025 -->
      <defs>
       <path d="M 19.1875 8.296875 
L 53.609375 8.296875 
L 53.609375 0 
L 7.328125 0 
L 7.328125 8.296875 
Q 12.9375 14.109375 22.625 23.890625 
Q 32.328125 33.6875 34.8125 36.53125 
Q 39.546875 41.84375 41.421875 45.53125 
Q 43.3125 49.21875 43.3125 52.78125 
Q 43.3125 58.59375 39.234375 62.25 
Q 35.15625 65.921875 28.609375 65.921875 
Q 23.96875 65.921875 18.8125 64.3125 
Q 13.671875 62.703125 7.8125 59.421875 
L 7.8125 69.390625 
Q 13.765625 71.78125 18.9375 73 
Q 24.125 74.21875 28.421875 74.21875 
Q 39.75 74.21875 46.484375 68.546875 
Q 53.21875 62.890625 53.21875 53.421875 
Q 53.21875 48.921875 51.53125 44.890625 
Q 49.859375 40.875 45.40625 35.40625 
Q 44.1875 33.984375 37.640625 27.21875 
Q 31.109375 20.453125 19.1875 8.296875 
z
" id="DejaVuSans-50"/>
       <path d="M 10.796875 72.90625 
L 49.515625 72.90625 
L 49.515625 64.59375 
L 19.828125 64.59375 
L 19.828125 46.734375 
Q 21.96875 47.46875 24.109375 47.828125 
Q 26.265625 48.1875 28.421875 48.1875 
Q 40.625 48.1875 47.75 41.5 
Q 54.890625 34.8125 54.890625 23.390625 
Q 54.890625 11.625 47.5625 5.09375 
Q 40.234375 -1.421875 26.90625 -1.421875 
Q 22.3125 -1.421875 17.546875 -0.640625 
Q 12.796875 0.140625 7.71875 1.703125 
L 7.71875 11.625 
Q 12.109375 9.234375 16.796875 8.0625 
Q 21.484375 6.890625 26.703125 6.890625 
Q 35.15625 6.890625 40.078125 11.328125 
Q 45.015625 15.765625 45.015625 23.390625 
Q 45.015625 31 40.078125 35.4375 
Q 35.15625 39.890625 26.703125 39.890625 
Q 22.75 39.890625 18.8125 39.015625 
Q 14.890625 38.140625 10.796875 36.28125 
z
" id="DejaVuSans-53"/>
      </defs>
      <g transform="translate(145.48315 278.836563)scale(0.1 -0.1)">
       <use xlink:href="#DejaVuSans-48"/>
       <use x="63.623047" xlink:href="#DejaVuSans-46"/>
       <use x="95.410156" xlink:href="#DejaVuSans-48"/>
       <use x="159.033203" xlink:href="#DejaVuSans-48"/>
       <use x="222.65625" xlink:href="#DejaVuSans-48"/>
       <use x="286.279297" xlink:href="#DejaVuSans-50"/>
       <use x="349.902344" xlink:href="#DejaVuSans-53"/>
      </g>
     </g>
    </g>
    <g id="xtick_3">
     <g id="line2d_3">
      <g>
       <use style="stroke:#000000;stroke-width:0.8;" x="247.693032" xlink:href="#m336556e6a6" y="264.238125"/>
      </g>
     </g>
     <g id="text_3">
      <!-- 0.00050 -->
      <g transform="translate(227.01647 278.836563)scale(0.1 -0.1)">
       <use xlink:href="#DejaVuSans-48"/>
       <use x="63.623047" xlink:href="#DejaVuSans-46"/>
       <use x="95.410156" xlink:href="#DejaVuSans-48"/>
       <use x="159.033203" xlink:href="#DejaVuSans-48"/>
       <use x="222.65625" xlink:href="#DejaVuSans-48"/>
       <use x="286.279297" xlink:href="#DejaVuSans-53"/>
       <use x="349.902344" xlink:href="#DejaVuSans-48"/>
      </g>
     </g>
    </g>
    <g id="xtick_4">
     <g id="line2d_4">
      <g>
       <use style="stroke:#000000;stroke-width:0.8;" x="329.226352" xlink:href="#m336556e6a6" y="264.238125"/>
      </g>
     </g>
     <g id="text_4">
      <!-- 0.00075 -->
      <defs>
       <path d="M 8.203125 72.90625 
L 55.078125 72.90625 
L 55.078125 68.703125 
L 28.609375 0 
L 18.3125 0 
L 43.21875 64.59375 
L 8.203125 64.59375 
z
" id="DejaVuSans-55"/>
      </defs>
      <g transform="translate(308.54979 278.836563)scale(0.1 -0.1)">
       <use xlink:href="#DejaVuSans-48"/>
       <use x="63.623047" xlink:href="#DejaVuSans-46"/>
       <use x="95.410156" xlink:href="#DejaVuSans-48"/>
       <use x="159.033203" xlink:href="#DejaVuSans-48"/>
       <use x="222.65625" xlink:href="#DejaVuSans-48"/>
       <use x="286.279297" xlink:href="#DejaVuSans-55"/>
       <use x="349.902344" xlink:href="#DejaVuSans-53"/>
      </g>
     </g>
    </g>
    <g id="xtick_5">
     <g id="line2d_5">
      <g>
       <use style="stroke:#000000;stroke-width:0.8;" x="410.759672" xlink:href="#m336556e6a6" y="264.238125"/>
      </g>
     </g>
     <g id="text_5">
      <!-- 0.00100 -->
      <defs>
       <path d="M 12.40625 8.296875 
L 28.515625 8.296875 
L 28.515625 63.921875 
L 10.984375 60.40625 
L 10.984375 69.390625 
L 28.421875 72.90625 
L 38.28125 72.90625 
L 38.28125 8.296875 
L 54.390625 8.296875 
L 54.390625 0 
L 12.40625 0 
z
" id="DejaVuSans-49"/>
      </defs>
      <g transform="translate(390.08311 278.836563)scale(0.1 -0.1)">
       <use xlink:href="#DejaVuSans-48"/>
       <use x="63.623047" xlink:href="#DejaVuSans-46"/>
       <use x="95.410156" xlink:href="#DejaVuSans-48"/>
       <use x="159.033203" xlink:href="#DejaVuSans-48"/>
       <use x="222.65625" xlink:href="#DejaVuSans-49"/>
       <use x="286.279297" xlink:href="#DejaVuSans-48"/>
       <use x="349.902344" xlink:href="#DejaVuSans-48"/>
      </g>
     </g>
    </g>
    <g id="xtick_6">
     <g id="line2d_6">
      <g>
       <use style="stroke:#000000;stroke-width:0.8;" x="492.292992" xlink:href="#m336556e6a6" y="264.238125"/>
      </g>
     </g>
     <g id="text_6">
      <!-- 0.00125 -->
      <g transform="translate(471.61643 278.836563)scale(0.1 -0.1)">
       <use xlink:href="#DejaVuSans-48"/>
       <use x="63.623047" xlink:href="#DejaVuSans-46"/>
       <use x="95.410156" xlink:href="#DejaVuSans-48"/>
       <use x="159.033203" xlink:href="#DejaVuSans-48"/>
       <use x="222.65625" xlink:href="#DejaVuSans-49"/>
       <use x="286.279297" xlink:href="#DejaVuSans-50"/>
       <use x="349.902344" xlink:href="#DejaVuSans-53"/>
      </g>
     </g>
    </g>
    <g id="xtick_7">
     <g id="line2d_7">
      <g>
       <use style="stroke:#000000;stroke-width:0.8;" x="573.826312" xlink:href="#m336556e6a6" y="264.238125"/>
      </g>
     </g>
     <g id="text_7">
      <!-- 0.00150 -->
      <g transform="translate(553.14975 278.836563)scale(0.1 -0.1)">
       <use xlink:href="#DejaVuSans-48"/>
       <use x="63.623047" xlink:href="#DejaVuSans-46"/>
       <use x="95.410156" xlink:href="#DejaVuSans-48"/>
       <use x="159.033203" xlink:href="#DejaVuSans-48"/>
       <use x="222.65625" xlink:href="#DejaVuSans-49"/>
       <use x="286.279297" xlink:href="#DejaVuSans-53"/>
       <use x="349.902344" xlink:href="#DejaVuSans-48"/>
      </g>
     </g>
    </g>
    <g id="xtick_8">
     <g id="line2d_8">
      <g>
       <use style="stroke:#000000;stroke-width:0.8;" x="655.359632" xlink:href="#m336556e6a6" y="264.238125"/>
      </g>
     </g>
     <g id="text_8">
      <!-- 0.00175 -->
      <g transform="translate(634.68307 278.836563)scale(0.1 -0.1)">
       <use xlink:href="#DejaVuSans-48"/>
       <use x="63.623047" xlink:href="#DejaVuSans-46"/>
       <use x="95.410156" xlink:href="#DejaVuSans-48"/>
       <use x="159.033203" xlink:href="#DejaVuSans-48"/>
       <use x="222.65625" xlink:href="#DejaVuSans-49"/>
       <use x="286.279297" xlink:href="#DejaVuSans-55"/>
       <use x="349.902344" xlink:href="#DejaVuSans-53"/>
      </g>
     </g>
    </g>
    <g id="xtick_9">
     <g id="line2d_9">
      <g>
       <use style="stroke:#000000;stroke-width:0.8;" x="736.892952" xlink:href="#m336556e6a6" y="264.238125"/>
      </g>
     </g>
     <g id="text_9">
      <!-- 0.00200 -->
      <g transform="translate(716.21639 278.836563)scale(0.1 -0.1)">
       <use xlink:href="#DejaVuSans-48"/>
       <use x="63.623047" xlink:href="#DejaVuSans-46"/>
       <use x="95.410156" xlink:href="#DejaVuSans-48"/>
       <use x="159.033203" xlink:href="#DejaVuSans-48"/>
       <use x="222.65625" xlink:href="#DejaVuSans-50"/>
       <use x="286.279297" xlink:href="#DejaVuSans-48"/>
       <use x="349.902344" xlink:href="#DejaVuSans-48"/>
      </g>
     </g>
    </g>
    <g id="text_10">
     <!-- Time [s] -->
     <defs>
      <path d="M -0.296875 72.90625 
L 61.375 72.90625 
L 61.375 64.59375 
L 35.5 64.59375 
L 35.5 0 
L 25.59375 0 
L 25.59375 64.59375 
L -0.296875 64.59375 
z
" id="DejaVuSans-84"/>
      <path d="M 9.421875 54.6875 
L 18.40625 54.6875 
L 18.40625 0 
L 9.421875 0 
z
M 9.421875 75.984375 
L 18.40625 75.984375 
L 18.40625 64.59375 
L 9.421875 64.59375 
z
" id="DejaVuSans-105"/>
      <path d="M 52 44.1875 
Q 55.375 50.25 60.0625 53.125 
Q 64.75 56 71.09375 56 
Q 79.640625 56 84.28125 50.015625 
Q 88.921875 44.046875 88.921875 33.015625 
L 88.921875 0 
L 79.890625 0 
L 79.890625 32.71875 
Q 79.890625 40.578125 77.09375 44.375 
Q 74.3125 48.1875 68.609375 48.1875 
Q 61.625 48.1875 57.5625 43.546875 
Q 53.515625 38.921875 53.515625 30.90625 
L 53.515625 0 
L 44.484375 0 
L 44.484375 32.71875 
Q 44.484375 40.625 41.703125 44.40625 
Q 38.921875 48.1875 33.109375 48.1875 
Q 26.21875 48.1875 22.15625 43.53125 
Q 18.109375 38.875 18.109375 30.90625 
L 18.109375 0 
L 9.078125 0 
L 9.078125 54.6875 
L 18.109375 54.6875 
L 18.109375 46.1875 
Q 21.1875 51.21875 25.484375 53.609375 
Q 29.78125 56 35.6875 56 
Q 41.65625 56 45.828125 52.96875 
Q 50 49.953125 52 44.1875 
z
" id="DejaVuSans-109"/>
      <path d="M 56.203125 29.59375 
L 56.203125 25.203125 
L 14.890625 25.203125 
Q 15.484375 15.921875 20.484375 11.0625 
Q 25.484375 6.203125 34.421875 6.203125 
Q 39.59375 6.203125 44.453125 7.46875 
Q 49.3125 8.734375 54.109375 11.28125 
L 54.109375 2.78125 
Q 49.265625 0.734375 44.1875 -0.34375 
Q 39.109375 -1.421875 33.890625 -1.421875 
Q 20.796875 -1.421875 13.15625 6.1875 
Q 5.515625 13.8125 5.515625 26.8125 
Q 5.515625 40.234375 12.765625 48.109375 
Q 20.015625 56 32.328125 56 
Q 43.359375 56 49.78125 48.890625 
Q 56.203125 41.796875 56.203125 29.59375 
z
M 47.21875 32.234375 
Q 47.125 39.59375 43.09375 43.984375 
Q 39.0625 48.390625 32.421875 48.390625 
Q 24.90625 48.390625 20.390625 44.140625 
Q 15.875 39.890625 15.1875 32.171875 
z
" id="DejaVuSans-101"/>
      <path id="DejaVuSans-32"/>
      <path d="M 8.59375 75.984375 
L 29.296875 75.984375 
L 29.296875 69 
L 17.578125 69 
L 17.578125 -6.203125 
L 29.296875 -6.203125 
L 29.296875 -13.1875 
L 8.59375 -13.1875 
z
" id="DejaVuSans-91"/>
      <path d="M 44.28125 53.078125 
L 44.28125 44.578125 
Q 40.484375 46.53125 36.375 47.5 
Q 32.28125 48.484375 27.875 48.484375 
Q 21.1875 48.484375 17.84375 46.4375 
Q 14.5 44.390625 14.5 40.28125 
Q 14.5 37.15625 16.890625 35.375 
Q 19.28125 33.59375 26.515625 31.984375 
L 29.59375 31.296875 
Q 39.15625 29.25 43.1875 25.515625 
Q 47.21875 21.78125 47.21875 15.09375 
Q 47.21875 7.46875 41.1875 3.015625 
Q 35.15625 -1.421875 24.609375 -1.421875 
Q 20.21875 -1.421875 15.453125 -0.5625 
Q 10.6875 0.296875 5.421875 2 
L 5.421875 11.28125 
Q 10.40625 8.6875 15.234375 7.390625 
Q 20.0625 6.109375 24.8125 6.109375 
Q 31.15625 6.109375 34.5625 8.28125 
Q 37.984375 10.453125 37.984375 14.40625 
Q 37.984375 18.0625 35.515625 20.015625 
Q 33.0625 21.96875 24.703125 23.78125 
L 21.578125 24.515625 
Q 13.234375 26.265625 9.515625 29.90625 
Q 5.8125 33.546875 5.8125 39.890625 
Q 5.8125 47.609375 11.28125 51.796875 
Q 16.75 56 26.8125 56 
Q 31.78125 56 36.171875 55.265625 
Q 40.578125 54.546875 44.28125 53.078125 
z
" id="DejaVuSans-115"/>
      <path d="M 30.421875 75.984375 
L 30.421875 -13.1875 
L 9.71875 -13.1875 
L 9.71875 -6.203125 
L 21.390625 -6.203125 
L 21.390625 69 
L 9.71875 69 
L 9.71875 75.984375 
z
" id="DejaVuSans-93"/>
     </defs>
     <g transform="translate(388.798125 292.514688)scale(0.1 -0.1)">
      <use xlink:href="#DejaVuSans-84"/>
      <use x="61.037109" xlink:href="#DejaVuSans-105"/>
      <use x="88.820312" xlink:href="#DejaVuSans-109"/>
      <use x="186.232422" xlink:href="#DejaVuSans-101"/>
      <use x="247.755859" xlink:href="#DejaVuSans-32"/>
      <use x="279.542969" xlink:href="#DejaVuSans-91"/>
      <use x="318.556641" xlink:href="#DejaVuSans-115"/>
      <use x="370.65625" xlink:href="#DejaVuSans-93"/>
     </g>
    </g>
   </g>
   <g id="matplotlib.axis_2">
    <g id="ytick_1">
     <g id="line2d_10">
      <defs>
       <path d="M 0 0 
L -3.5 0 
" id="m236d287992" style="stroke:#000000;stroke-width:0.8;"/>
      </defs>
      <g>
       <use style="stroke:#000000;stroke-width:0.8;" x="52.160938" xlink:href="#m236d287992" y="227.053849"/>
      </g>
     </g>
     <g id="text_11">
      <!-- −0.8 -->
      <defs>
       <path d="M 10.59375 35.5 
L 73.1875 35.5 
L 73.1875 27.203125 
L 10.59375 27.203125 
z
" id="DejaVuSans-8722"/>
       <path d="M 31.78125 34.625 
Q 24.75 34.625 20.71875 30.859375 
Q 16.703125 27.09375 16.703125 20.515625 
Q 16.703125 13.921875 20.71875 10.15625 
Q 24.75 6.390625 31.78125 6.390625 
Q 38.8125 6.390625 42.859375 10.171875 
Q 46.921875 13.96875 46.921875 20.515625 
Q 46.921875 27.09375 42.890625 30.859375 
Q 38.875 34.625 31.78125 34.625 
z
M 21.921875 38.8125 
Q 15.578125 40.375 12.03125 44.71875 
Q 8.5 49.078125 8.5 55.328125 
Q 8.5 64.0625 14.71875 69.140625 
Q 20.953125 74.21875 31.78125 74.21875 
Q 42.671875 74.21875 48.875 69.140625 
Q 55.078125 64.0625 55.078125 55.328125 
Q 55.078125 49.078125 51.53125 44.71875 
Q 48 40.375 41.703125 38.8125 
Q 48.828125 37.15625 52.796875 32.3125 
Q 56.78125 27.484375 56.78125 20.515625 
Q 56.78125 9.90625 50.3125 4.234375 
Q 43.84375 -1.421875 31.78125 -1.421875 
Q 19.734375 -1.421875 13.25 4.234375 
Q 6.78125 9.90625 6.78125 20.515625 
Q 6.78125 27.484375 10.78125 32.3125 
Q 14.796875 37.15625 21.921875 38.8125 
z
M 18.3125 54.390625 
Q 18.3125 48.734375 21.84375 45.5625 
Q 25.390625 42.390625 31.78125 42.390625 
Q 38.140625 42.390625 41.71875 45.5625 
Q 45.3125 48.734375 45.3125 54.390625 
Q 45.3125 60.0625 41.71875 63.234375 
Q 38.140625 66.40625 31.78125 66.40625 
Q 25.390625 66.40625 21.84375 63.234375 
Q 18.3125 60.0625 18.3125 54.390625 
z
" id="DejaVuSans-56"/>
      </defs>
      <g transform="translate(20.878125 230.853068)scale(0.1 -0.1)">
       <use xlink:href="#DejaVuSans-8722"/>
       <use x="83.789062" xlink:href="#DejaVuSans-48"/>
       <use x="147.412109" xlink:href="#DejaVuSans-46"/>
       <use x="179.199219" xlink:href="#DejaVuSans-56"/>
      </g>
     </g>
    </g>
    <g id="ytick_2">
     <g id="line2d_11">
      <g>
       <use style="stroke:#000000;stroke-width:0.8;" x="52.160938" xlink:href="#m236d287992" y="178.619009"/>
      </g>
     </g>
     <g id="text_12">
      <!-- −0.6 -->
      <defs>
       <path d="M 33.015625 40.375 
Q 26.375 40.375 22.484375 35.828125 
Q 18.609375 31.296875 18.609375 23.390625 
Q 18.609375 15.53125 22.484375 10.953125 
Q 26.375 6.390625 33.015625 6.390625 
Q 39.65625 6.390625 43.53125 10.953125 
Q 47.40625 15.53125 47.40625 23.390625 
Q 47.40625 31.296875 43.53125 35.828125 
Q 39.65625 40.375 33.015625 40.375 
z
M 52.59375 71.296875 
L 52.59375 62.3125 
Q 48.875 64.0625 45.09375 64.984375 
Q 41.3125 65.921875 37.59375 65.921875 
Q 27.828125 65.921875 22.671875 59.328125 
Q 17.53125 52.734375 16.796875 39.40625 
Q 19.671875 43.65625 24.015625 45.921875 
Q 28.375 48.1875 33.59375 48.1875 
Q 44.578125 48.1875 50.953125 41.515625 
Q 57.328125 34.859375 57.328125 23.390625 
Q 57.328125 12.15625 50.6875 5.359375 
Q 44.046875 -1.421875 33.015625 -1.421875 
Q 20.359375 -1.421875 13.671875 8.265625 
Q 6.984375 17.96875 6.984375 36.375 
Q 6.984375 53.65625 15.1875 63.9375 
Q 23.390625 74.21875 37.203125 74.21875 
Q 40.921875 74.21875 44.703125 73.484375 
Q 48.484375 72.75 52.59375 71.296875 
z
" id="DejaVuSans-54"/>
      </defs>
      <g transform="translate(20.878125 182.418228)scale(0.1 -0.1)">
       <use xlink:href="#DejaVuSans-8722"/>
       <use x="83.789062" xlink:href="#DejaVuSans-48"/>
       <use x="147.412109" xlink:href="#DejaVuSans-46"/>
       <use x="179.199219" xlink:href="#DejaVuSans-54"/>
      </g>
     </g>
    </g>
    <g id="ytick_3">
     <g id="line2d_12">
      <g>
       <use style="stroke:#000000;stroke-width:0.8;" x="52.160938" xlink:href="#m236d287992" y="130.184169"/>
      </g>
     </g>
     <g id="text_13">
      <!-- −0.4 -->
      <defs>
       <path d="M 37.796875 64.3125 
L 12.890625 25.390625 
L 37.796875 25.390625 
z
M 35.203125 72.90625 
L 47.609375 72.90625 
L 47.609375 25.390625 
L 58.015625 25.390625 
L 58.015625 17.1875 
L 47.609375 17.1875 
L 47.609375 0 
L 37.796875 0 
L 37.796875 17.1875 
L 4.890625 17.1875 
L 4.890625 26.703125 
z
" id="DejaVuSans-52"/>
      </defs>
      <g transform="translate(20.878125 133.983388)scale(0.1 -0.1)">
       <use xlink:href="#DejaVuSans-8722"/>
       <use x="83.789062" xlink:href="#DejaVuSans-48"/>
       <use x="147.412109" xlink:href="#DejaVuSans-46"/>
       <use x="179.199219" xlink:href="#DejaVuSans-52"/>
      </g>
     </g>
    </g>
    <g id="ytick_4">
     <g id="line2d_13">
      <g>
       <use style="stroke:#000000;stroke-width:0.8;" x="52.160938" xlink:href="#m236d287992" y="81.749329"/>
      </g>
     </g>
     <g id="text_14">
      <!-- −0.2 -->
      <g transform="translate(20.878125 85.548548)scale(0.1 -0.1)">
       <use xlink:href="#DejaVuSans-8722"/>
       <use x="83.789062" xlink:href="#DejaVuSans-48"/>
       <use x="147.412109" xlink:href="#DejaVuSans-46"/>
       <use x="179.199219" xlink:href="#DejaVuSans-50"/>
      </g>
     </g>
    </g>
    <g id="ytick_5">
     <g id="line2d_14">
      <g>
       <use style="stroke:#000000;stroke-width:0.8;" x="52.160938" xlink:href="#m236d287992" y="33.314489"/>
      </g>
     </g>
     <g id="text_15">
      <!-- 0.0 -->
      <g transform="translate(29.257813 37.113707)scale(0.1 -0.1)">
       <use xlink:href="#DejaVuSans-48"/>
       <use x="63.623047" xlink:href="#DejaVuSans-46"/>
       <use x="95.410156" xlink:href="#DejaVuSans-48"/>
      </g>
     </g>
    </g>
    <g id="text_16">
     <!-- Amplitude [V] -->
     <defs>
      <path d="M 34.1875 63.1875 
L 20.796875 26.90625 
L 47.609375 26.90625 
z
M 28.609375 72.90625 
L 39.796875 72.90625 
L 67.578125 0 
L 57.328125 0 
L 50.6875 18.703125 
L 17.828125 18.703125 
L 11.1875 0 
L 0.78125 0 
z
" id="DejaVuSans-65"/>
      <path d="M 18.109375 8.203125 
L 18.109375 -20.796875 
L 9.078125 -20.796875 
L 9.078125 54.6875 
L 18.109375 54.6875 
L 18.109375 46.390625 
Q 20.953125 51.265625 25.265625 53.625 
Q 29.59375 56 35.59375 56 
Q 45.5625 56 51.78125 48.09375 
Q 58.015625 40.1875 58.015625 27.296875 
Q 58.015625 14.40625 51.78125 6.484375 
Q 45.5625 -1.421875 35.59375 -1.421875 
Q 29.59375 -1.421875 25.265625 0.953125 
Q 20.953125 3.328125 18.109375 8.203125 
z
M 48.6875 27.296875 
Q 48.6875 37.203125 44.609375 42.84375 
Q 40.53125 48.484375 33.40625 48.484375 
Q 26.265625 48.484375 22.1875 42.84375 
Q 18.109375 37.203125 18.109375 27.296875 
Q 18.109375 17.390625 22.1875 11.75 
Q 26.265625 6.109375 33.40625 6.109375 
Q 40.53125 6.109375 44.609375 11.75 
Q 48.6875 17.390625 48.6875 27.296875 
z
" id="DejaVuSans-112"/>
      <path d="M 9.421875 75.984375 
L 18.40625 75.984375 
L 18.40625 0 
L 9.421875 0 
z
" id="DejaVuSans-108"/>
      <path d="M 18.3125 70.21875 
L 18.3125 54.6875 
L 36.8125 54.6875 
L 36.8125 47.703125 
L 18.3125 47.703125 
L 18.3125 18.015625 
Q 18.3125 11.328125 20.140625 9.421875 
Q 21.96875 7.515625 27.59375 7.515625 
L 36.8125 7.515625 
L 36.8125 0 
L 27.59375 0 
Q 17.1875 0 13.234375 3.875 
Q 9.28125 7.765625 9.28125 18.015625 
L 9.28125 47.703125 
L 2.6875 47.703125 
L 2.6875 54.6875 
L 9.28125 54.6875 
L 9.28125 70.21875 
z
" id="DejaVuSans-116"/>
      <path d="M 8.5 21.578125 
L 8.5 54.6875 
L 17.484375 54.6875 
L 17.484375 21.921875 
Q 17.484375 14.15625 20.5 10.265625 
Q 23.53125 6.390625 29.59375 6.390625 
Q 36.859375 6.390625 41.078125 11.03125 
Q 45.3125 15.671875 45.3125 23.6875 
L 45.3125 54.6875 
L 54.296875 54.6875 
L 54.296875 0 
L 45.3125 0 
L 45.3125 8.40625 
Q 42.046875 3.421875 37.71875 1 
Q 33.40625 -1.421875 27.6875 -1.421875 
Q 18.265625 -1.421875 13.375 4.4375 
Q 8.5 10.296875 8.5 21.578125 
z
M 31.109375 56 
z
" id="DejaVuSans-117"/>
      <path d="M 45.40625 46.390625 
L 45.40625 75.984375 
L 54.390625 75.984375 
L 54.390625 0 
L 45.40625 0 
L 45.40625 8.203125 
Q 42.578125 3.328125 38.25 0.953125 
Q 33.9375 -1.421875 27.875 -1.421875 
Q 17.96875 -1.421875 11.734375 6.484375 
Q 5.515625 14.40625 5.515625 27.296875 
Q 5.515625 40.1875 11.734375 48.09375 
Q 17.96875 56 27.875 56 
Q 33.9375 56 38.25 53.625 
Q 42.578125 51.265625 45.40625 46.390625 
z
M 14.796875 27.296875 
Q 14.796875 17.390625 18.875 11.75 
Q 22.953125 6.109375 30.078125 6.109375 
Q 37.203125 6.109375 41.296875 11.75 
Q 45.40625 17.390625 45.40625 27.296875 
Q 45.40625 37.203125 41.296875 42.84375 
Q 37.203125 48.484375 30.078125 48.484375 
Q 22.953125 48.484375 18.875 42.84375 
Q 14.796875 37.203125 14.796875 27.296875 
z
" id="DejaVuSans-100"/>
      <path d="M 28.609375 0 
L 0.78125 72.90625 
L 11.078125 72.90625 
L 34.1875 11.53125 
L 57.328125 72.90625 
L 67.578125 72.90625 
L 39.796875 0 
z
" id="DejaVuSans-86"/>
     </defs>
     <g transform="translate(14.798438 177.811719)rotate(-90)scale(0.1 -0.1)">
      <use xlink:href="#DejaVuSans-65"/>
      <use x="68.408203" xlink:href="#DejaVuSans-109"/>
      <use x="165.820312" xlink:href="#DejaVuSans-112"/>
      <use x="229.296875" xlink:href="#DejaVuSans-108"/>
      <use x="257.080078" xlink:href="#DejaVuSans-105"/>
      <use x="284.863281" xlink:href="#DejaVuSans-116"/>
      <use x="324.072266" xlink:href="#DejaVuSans-117"/>
      <use x="387.451172" xlink:href="#DejaVuSans-100"/>
      <use x="450.927734" xlink:href="#DejaVuSans-101"/>
      <use x="512.451172" xlink:href="#DejaVuSans-32"/>
      <use x="544.238281" xlink:href="#DejaVuSans-91"/>
      <use x="583.251953" xlink:href="#DejaVuSans-86"/>
      <use x="651.660156" xlink:href="#DejaVuSans-93"/>
     </g>
    </g>
   </g>
   <g id="line2d_15">
    <path clip-path="url(#p9aa8ac1d90)" d="M 84.626392 33.314489 
L 86.108833 252.365144 
L 87.591274 116.977039 
L 89.073715 116.993484 
L 90.556155 252.354979 
L 92.038596 33.31449 
L 93.521037 252.375306 
L 95.003478 116.960595 
L 96.485919 117.00993 
L 97.96836 252.344813 
L 99.450801 33.314494 
L 100.933241 252.385466 
L 102.415682 116.944151 
L 103.898123 117.026377 
L 105.380564 252.334645 
L 106.863005 33.3145 
L 108.345446 252.395624 
L 109.827886 116.927708 
L 111.310327 117.042824 
L 112.792768 252.324475 
L 114.275209 33.314508 
L 115.75765 252.40578 
L 117.240091 116.911266 
L 118.722532 117.059273 
L 120.204972 252.314302 
L 121.687413 33.31452 
L 123.169854 252.415935 
L 124.652295 116.894825 
L 126.134736 117.075722 
L 127.617177 252.304128 
L 129.099617 33.314533 
L 130.582058 252.426087 
L 132.064499 116.878384 
L 133.54694 117.092171 
L 135.029381 252.293952 
L 136.511822 33.314549 
L 137.994263 252.436237 
L 139.476703 116.861944 
L 140.959144 117.108622 
L 142.441585 252.283774 
L 143.924026 33.314568 
L 145.406467 252.446385 
L 146.888908 116.845505 
L 148.371348 117.125073 
L 149.853789 252.273594 
L 151.33623 33.314589 
L 152.818671 252.456532 
L 154.301112 116.829067 
L 155.783553 117.141525 
L 157.265994 252.263411 
L 158.748434 33.314612 
L 160.230875 252.466676 
L 161.713316 116.812629 
L 163.195757 117.157978 
L 164.678198 252.253227 
L 166.160639 33.314638 
L 167.643079 252.476818 
L 169.12552 116.796193 
L 170.607961 117.174431 
L 172.090402 252.243041 
L 173.572843 33.314666 
L 175.055284 252.486958 
L 176.537725 116.779757 
L 178.020165 117.190886 
L 179.502606 252.232853 
L 180.985047 33.314697 
L 182.467488 252.497097 
L 183.949929 116.763322 
L 185.43237 117.207341 
L 186.91481 252.222663 
L 188.397251 33.314731 
L 189.879692 252.507233 
L 191.362133 116.746887 
L 192.844574 117.223797 
L 194.327015 252.212471 
L 195.809456 33.314766 
L 197.291896 252.517367 
L 198.774337 116.730453 
L 200.256778 117.240253 
L 201.739219 252.202276 
L 203.22166 33.314805 
L 204.704101 252.527499 
L 206.186541 116.71402 
L 207.668982 117.256711 
L 209.151423 252.19208 
L 210.633864 33.314845 
L 212.116305 252.53763 
L 213.598746 116.697588 
L 215.081187 117.273169 
L 216.563627 252.181882 
L 218.046068 33.314889 
L 219.528509 252.547758 
L 221.01095 116.681157 
L 222.493391 117.289627 
L 223.975832 252.171682 
L 225.458272 33.314934 
L 226.940713 252.557884 
L 228.423154 116.664726 
L 229.905595 117.306087 
L 231.388036 252.16148 
L 232.870477 33.314982 
L 234.352918 252.568008 
L 235.835358 116.648296 
L 237.317799 117.322547 
L 238.80024 252.151276 
L 240.282681 33.315033 
L 241.765122 252.57813 
L 243.247563 116.631867 
L 244.730004 117.339009 
L 246.212444 252.141069 
L 247.694885 33.315086 
L 249.177326 252.588251 
L 250.659767 116.615439 
L 252.142208 117.35547 
L 253.624649 252.130861 
L 255.107089 33.315142 
L 256.58953 252.598369 
L 258.071971 116.599012 
L 259.554412 117.371933 
L 261.036853 252.120651 
L 262.519294 33.3152 
L 264.001735 252.608485 
L 265.484175 116.582585 
L 266.966616 117.388396 
L 268.449057 252.110439 
L 269.931498 33.31526 
L 271.413939 252.618599 
L 272.89638 116.566159 
L 274.37882 117.404861 
L 275.861261 252.100225 
L 277.343702 33.315323 
L 278.826143 252.628712 
L 280.308584 116.549734 
L 281.791025 117.421326 
L 283.273466 252.090009 
L 284.755906 33.315389 
L 286.238347 252.638822 
L 287.720788 116.533309 
L 289.203229 117.437791 
L 290.68567 252.079791 
L 292.168111 33.315457 
L 293.650551 252.64893 
L 295.132992 116.516885 
L 296.615433 117.454258 
L 298.097874 252.069571 
L 299.580315 33.315527 
L 301.062756 252.659036 
L 302.545197 116.500463 
L 304.027637 117.470725 
L 305.510078 252.059349 
L 306.992519 33.3156 
L 308.47496 252.66914 
L 309.957401 116.48404 
L 311.439842 117.487193 
L 312.922282 252.049125 
L 314.404723 33.315675 
L 315.887164 252.679243 
L 317.369605 116.467619 
L 318.852046 117.503661 
L 320.334487 252.038899 
L 321.816928 33.315753 
L 323.299368 252.689343 
L 324.781809 116.451199 
L 326.26425 117.520131 
L 327.746691 252.028671 
L 329.229132 33.315833 
L 330.711573 252.699441 
L 332.194013 116.434779 
L 333.676454 117.536601 
L 335.158895 252.018441 
L 336.641336 33.315916 
L 338.123777 252.709537 
L 339.606218 116.41836 
L 341.088659 117.553072 
L 342.571099 252.008209 
L 344.05354 33.316001 
L 345.535981 252.719631 
L 347.018422 116.401941 
L 348.500863 117.569543 
L 349.983304 251.997974 
L 351.465744 33.316089 
L 352.948185 252.729724 
L 354.430626 116.385524 
L 355.913067 117.586016 
L 357.395508 251.987738 
L 358.877949 33.316179 
L 360.36039 252.739814 
L 361.84283 116.369107 
L 363.325271 117.602489 
L 364.807712 251.9775 
L 366.290153 33.316271 
L 367.772594 252.749902 
L 369.255035 116.352691 
L 370.737475 117.618963 
L 372.219916 251.967261 
L 373.702357 33.316366 
L 375.184798 252.759988 
L 376.667239 116.336276 
L 378.14968 117.635438 
L 379.632121 251.957019 
L 381.114561 33.316464 
L 382.597002 252.770072 
L 384.079443 116.319862 
L 385.561884 117.651913 
L 387.044325 251.946775 
L 388.526766 33.316564 
L 390.009206 252.780154 
L 391.491647 116.303448 
L 392.974088 117.668389 
L 394.456529 251.936529 
L 395.93897 33.316666 
L 397.421411 252.790235 
L 398.903852 116.287035 
L 400.386292 117.684866 
L 401.868733 251.926281 
L 403.351174 33.316771 
L 404.833615 252.800313 
L 406.316056 116.270623 
L 407.798497 117.701344 
L 409.280938 251.916031 
L 410.763378 33.316879 
L 412.245819 252.810389 
L 413.72826 116.254212 
L 415.210701 117.717822 
L 416.693142 251.905779 
L 418.175583 33.316989 
L 419.658023 252.820463 
L 421.140464 116.237802 
L 422.622905 117.734301 
L 424.105346 251.895525 
L 425.587787 33.317101 
L 427.070228 252.830535 
L 428.552669 116.221392 
L 430.035109 117.750781 
L 431.51755 251.885269 
L 432.999991 33.317216 
L 434.482432 252.840605 
L 435.964873 116.204983 
L 437.447314 117.767262 
L 438.929754 251.875011 
L 440.412195 33.317333 
L 441.894636 252.850673 
L 443.377077 116.188575 
L 444.859518 117.783743 
L 446.341959 251.864751 
L 447.8244 33.317453 
L 449.30684 252.860739 
L 450.789281 116.172167 
L 452.271722 117.800226 
L 453.754163 251.854489 
L 455.236604 33.317575 
L 456.719045 252.870803 
L 458.201485 116.155761 
L 459.683926 117.816708 
L 461.166367 251.844226 
L 462.648808 33.3177 
L 464.131249 252.880866 
L 465.61369 116.139355 
L 467.096131 117.833192 
L 468.578571 251.83396 
L 470.061012 33.317827 
L 471.543453 252.890926 
L 473.025894 116.12295 
L 474.508335 117.849676 
L 475.990776 251.823692 
L 477.473216 33.317957 
L 478.955657 252.900984 
L 480.438098 116.106546 
L 481.920539 117.866162 
L 483.40298 251.813422 
L 484.885421 33.318089 
L 486.367862 252.91104 
L 487.850302 116.090142 
L 489.332743 117.882647 
L 490.815184 251.80315 
L 492.297625 33.318223 
L 493.780066 252.921094 
L 495.262507 116.073739 
L 496.744947 117.899134 
L 498.227388 251.792877 
L 499.709829 33.31836 
L 501.19227 252.931146 
L 502.674711 116.057338 
L 504.157152 117.915621 
L 505.639593 251.782601 
L 507.122033 33.3185 
L 508.604474 252.941196 
L 510.086915 116.040936 
L 511.569356 117.93211 
L 513.051797 251.772323 
L 514.534238 33.318642 
L 516.016678 252.951244 
L 517.499119 116.024536 
L 518.98156 117.948598 
L 520.464001 251.762043 
L 521.946442 33.318786 
L 523.428883 252.96129 
L 524.911324 116.008136 
L 526.393764 117.965088 
L 527.876205 251.751762 
L 529.358646 33.318933 
L 530.841087 252.971334 
L 532.323528 115.991738 
L 533.805969 117.981578 
L 535.288409 251.741478 
L 536.77085 33.319083 
L 538.253291 252.981376 
L 539.735732 115.97534 
L 541.218173 117.998069 
L 542.700614 251.731192 
L 544.183055 33.319234 
L 545.665495 252.991416 
L 547.147936 115.958942 
L 548.630377 118.014561 
L 550.112818 251.720904 
L 551.595259 33.319389 
L 553.0777 253.001454 
L 554.56014 115.942546 
L 556.042581 118.031054 
L 557.525022 251.710615 
L 559.007463 33.319546 
L 560.489904 253.01149 
L 561.972345 115.92615 
L 563.454786 118.047547 
L 564.937226 251.700323 
L 566.419667 33.319705 
L 567.902108 253.021524 
L 569.384549 115.909755 
L 570.86699 118.064041 
L 572.349431 251.69003 
L 573.831871 33.319867 
L 575.314312 253.031556 
L 576.796753 115.893361 
L 578.279194 118.080536 
L 579.761635 251.679734 
L 581.244076 33.320031 
L 582.726517 253.041586 
L 584.208957 115.876968 
L 585.691398 118.097032 
L 587.173839 251.669436 
L 588.65628 33.320197 
L 590.138721 253.051613 
L 591.621162 115.860576 
L 593.103603 118.113528 
L 594.586043 251.659137 
L 596.068484 33.320367 
L 597.550925 253.061639 
L 599.033366 115.844184 
L 600.515807 118.130025 
L 601.998248 251.648835 
L 603.480688 33.320538 
L 604.963129 253.071663 
L 606.44557 115.827793 
L 607.928011 118.146523 
L 609.410452 251.638532 
L 610.892893 33.320712 
L 612.375334 253.081685 
L 613.857774 115.811403 
L 615.340215 118.163021 
L 616.822656 251.628226 
L 618.305097 33.320889 
L 619.787538 253.091705 
L 621.269979 115.795013 
L 622.752419 118.17952 
L 624.23486 251.617919 
L 625.717301 33.321068 
L 627.199742 253.101723 
L 628.682183 115.778625 
L 630.164624 118.19602 
L 631.647065 251.607609 
L 633.129505 33.321249 
L 634.611946 253.111739 
L 636.094387 115.762237 
L 637.576828 118.212521 
L 639.059269 251.597298 
L 640.54171 33.321433 
L 642.02415 253.121753 
L 643.506591 115.74585 
L 644.989032 118.229023 
L 646.471473 251.586984 
L 647.953914 33.32162 
L 649.436355 253.131764 
L 650.918796 115.729464 
L 652.401236 118.245525 
L 653.883677 251.576669 
L 655.366118 33.321809 
L 656.848559 253.141774 
L 658.331 115.713078 
L 659.813441 118.262028 
L 661.295881 251.566351 
L 662.778322 33.322 
L 664.260763 253.151782 
L 665.743204 115.696694 
L 667.225645 118.278531 
L 668.708086 251.556032 
L 670.190527 33.322194 
L 671.672967 253.161788 
L 673.155408 115.68031 
L 674.637849 118.295036 
L 676.12029 251.545711 
L 677.602731 33.32239 
L 679.085172 253.171791 
L 680.567612 115.663927 
L 682.050053 118.311541 
L 683.532494 251.535387 
L 685.014935 33.322589 
L 686.497376 253.181793 
L 687.979817 115.647545 
L 689.462258 118.328047 
L 690.944698 251.525062 
L 692.427139 33.32279 
L 693.90958 253.191793 
L 695.392021 115.631163 
L 696.874462 118.344553 
L 698.356903 251.514734 
L 699.839343 33.322994 
L 701.321784 253.201791 
L 702.804225 115.614782 
L 704.286666 118.361061 
L 705.769107 251.504405 
L 707.251548 33.3232 
L 708.733989 253.211786 
L 710.216429 115.598403 
L 711.69887 118.377569 
L 713.181311 251.494074 
L 714.663752 33.323409 
L 716.146193 253.22178 
L 717.628634 115.582023 
L 719.111074 118.394078 
L 720.593515 251.483741 
L 722.075956 33.32362 
L 723.558397 253.231772 
L 725.040838 115.565645 
L 726.523279 118.410587 
L 728.00572 251.473405 
L 729.48816 33.323833 
L 730.970601 253.241761 
L 732.453042 115.549268 
L 733.935483 118.427097 
L 733.935483 118.427097 
" style="fill:none;stroke:#1f77b4;stroke-linecap:square;stroke-width:0.5;"/>
   </g>
   <g id="patch_3">
    <path d="M 52.160938 264.238125 
L 52.160938 22.318125 
" style="fill:none;stroke:#000000;stroke-linecap:square;stroke-linejoin:miter;stroke-width:0.8;"/>
   </g>
   <g id="patch_4">
    <path d="M 766.400938 264.238125 
L 766.400938 22.318125 
" style="fill:none;stroke:#000000;stroke-linecap:square;stroke-linejoin:miter;stroke-width:0.8;"/>
   </g>
   <g id="patch_5">
    <path d="M 52.160938 264.238125 
L 766.400938 264.238125 
" style="fill:none;stroke:#000000;stroke-linecap:square;stroke-linejoin:miter;stroke-width:0.8;"/>
   </g>
   <g id="patch_6">
    <path d="M 52.160938 22.318125 
L 766.400938 22.318125 
" style="fill:none;stroke:#000000;stroke-linecap:square;stroke-linejoin:miter;stroke-width:0.8;"/>
   </g>
   <g id="text_17">
    <!-- One bit of demodulated and digitized signal time domain -->
    <defs>
     <path d="M 39.40625 66.21875 
Q 28.65625 66.21875 22.328125 58.203125 
Q 16.015625 50.203125 16.015625 36.375 
Q 16.015625 22.609375 22.328125 14.59375 
Q 28.65625 6.59375 39.40625 6.59375 
Q 50.140625 6.59375 56.421875 14.59375 
Q 62.703125 22.609375 62.703125 36.375 
Q 62.703125 50.203125 56.421875 58.203125 
Q 50.140625 66.21875 39.40625 66.21875 
z
M 39.40625 74.21875 
Q 54.734375 74.21875 63.90625 63.9375 
Q 73.09375 53.65625 73.09375 36.375 
Q 73.09375 19.140625 63.90625 8.859375 
Q 54.734375 -1.421875 39.40625 -1.421875 
Q 24.03125 -1.421875 14.8125 8.828125 
Q 5.609375 19.09375 5.609375 36.375 
Q 5.609375 53.65625 14.8125 63.9375 
Q 24.03125 74.21875 39.40625 74.21875 
z
" id="DejaVuSans-79"/>
     <path d="M 54.890625 33.015625 
L 54.890625 0 
L 45.90625 0 
L 45.90625 32.71875 
Q 45.90625 40.484375 42.875 44.328125 
Q 39.84375 48.1875 33.796875 48.1875 
Q 26.515625 48.1875 22.3125 43.546875 
Q 18.109375 38.921875 18.109375 30.90625 
L 18.109375 0 
L 9.078125 0 
L 9.078125 54.6875 
L 18.109375 54.6875 
L 18.109375 46.1875 
Q 21.34375 51.125 25.703125 53.5625 
Q 30.078125 56 35.796875 56 
Q 45.21875 56 50.046875 50.171875 
Q 54.890625 44.34375 54.890625 33.015625 
z
" id="DejaVuSans-110"/>
     <path d="M 48.6875 27.296875 
Q 48.6875 37.203125 44.609375 42.84375 
Q 40.53125 48.484375 33.40625 48.484375 
Q 26.265625 48.484375 22.1875 42.84375 
Q 18.109375 37.203125 18.109375 27.296875 
Q 18.109375 17.390625 22.1875 11.75 
Q 26.265625 6.109375 33.40625 6.109375 
Q 40.53125 6.109375 44.609375 11.75 
Q 48.6875 17.390625 48.6875 27.296875 
z
M 18.109375 46.390625 
Q 20.953125 51.265625 25.265625 53.625 
Q 29.59375 56 35.59375 56 
Q 45.5625 56 51.78125 48.09375 
Q 58.015625 40.1875 58.015625 27.296875 
Q 58.015625 14.40625 51.78125 6.484375 
Q 45.5625 -1.421875 35.59375 -1.421875 
Q 29.59375 -1.421875 25.265625 0.953125 
Q 20.953125 3.328125 18.109375 8.203125 
L 18.109375 0 
L 9.078125 0 
L 9.078125 75.984375 
L 18.109375 75.984375 
z
" id="DejaVuSans-98"/>
     <path d="M 30.609375 48.390625 
Q 23.390625 48.390625 19.1875 42.75 
Q 14.984375 37.109375 14.984375 27.296875 
Q 14.984375 17.484375 19.15625 11.84375 
Q 23.34375 6.203125 30.609375 6.203125 
Q 37.796875 6.203125 41.984375 11.859375 
Q 46.1875 17.53125 46.1875 27.296875 
Q 46.1875 37.015625 41.984375 42.703125 
Q 37.796875 48.390625 30.609375 48.390625 
z
M 30.609375 56 
Q 42.328125 56 49.015625 48.375 
Q 55.71875 40.765625 55.71875 27.296875 
Q 55.71875 13.875 49.015625 6.21875 
Q 42.328125 -1.421875 30.609375 -1.421875 
Q 18.84375 -1.421875 12.171875 6.21875 
Q 5.515625 13.875 5.515625 27.296875 
Q 5.515625 40.765625 12.171875 48.375 
Q 18.84375 56 30.609375 56 
z
" id="DejaVuSans-111"/>
     <path d="M 37.109375 75.984375 
L 37.109375 68.5 
L 28.515625 68.5 
Q 23.6875 68.5 21.796875 66.546875 
Q 19.921875 64.59375 19.921875 59.515625 
L 19.921875 54.6875 
L 34.71875 54.6875 
L 34.71875 47.703125 
L 19.921875 47.703125 
L 19.921875 0 
L 10.890625 0 
L 10.890625 47.703125 
L 2.296875 47.703125 
L 2.296875 54.6875 
L 10.890625 54.6875 
L 10.890625 58.5 
Q 10.890625 67.625 15.140625 71.796875 
Q 19.390625 75.984375 28.609375 75.984375 
z
" id="DejaVuSans-102"/>
     <path d="M 34.28125 27.484375 
Q 23.390625 27.484375 19.1875 25 
Q 14.984375 22.515625 14.984375 16.5 
Q 14.984375 11.71875 18.140625 8.90625 
Q 21.296875 6.109375 26.703125 6.109375 
Q 34.1875 6.109375 38.703125 11.40625 
Q 43.21875 16.703125 43.21875 25.484375 
L 43.21875 27.484375 
z
M 52.203125 31.203125 
L 52.203125 0 
L 43.21875 0 
L 43.21875 8.296875 
Q 40.140625 3.328125 35.546875 0.953125 
Q 30.953125 -1.421875 24.3125 -1.421875 
Q 15.921875 -1.421875 10.953125 3.296875 
Q 6 8.015625 6 15.921875 
Q 6 25.140625 12.171875 29.828125 
Q 18.359375 34.515625 30.609375 34.515625 
L 43.21875 34.515625 
L 43.21875 35.40625 
Q 43.21875 41.609375 39.140625 45 
Q 35.0625 48.390625 27.6875 48.390625 
Q 23 48.390625 18.546875 47.265625 
Q 14.109375 46.140625 10.015625 43.890625 
L 10.015625 52.203125 
Q 14.9375 54.109375 19.578125 55.046875 
Q 24.21875 56 28.609375 56 
Q 40.484375 56 46.34375 49.84375 
Q 52.203125 43.703125 52.203125 31.203125 
z
" id="DejaVuSans-97"/>
     <path d="M 45.40625 27.984375 
Q 45.40625 37.75 41.375 43.109375 
Q 37.359375 48.484375 30.078125 48.484375 
Q 22.859375 48.484375 18.828125 43.109375 
Q 14.796875 37.75 14.796875 27.984375 
Q 14.796875 18.265625 18.828125 12.890625 
Q 22.859375 7.515625 30.078125 7.515625 
Q 37.359375 7.515625 41.375 12.890625 
Q 45.40625 18.265625 45.40625 27.984375 
z
M 54.390625 6.78125 
Q 54.390625 -7.171875 48.1875 -13.984375 
Q 42 -20.796875 29.203125 -20.796875 
Q 24.46875 -20.796875 20.265625 -20.09375 
Q 16.0625 -19.390625 12.109375 -17.921875 
L 12.109375 -9.1875 
Q 16.0625 -11.328125 19.921875 -12.34375 
Q 23.78125 -13.375 27.78125 -13.375 
Q 36.625 -13.375 41.015625 -8.765625 
Q 45.40625 -4.15625 45.40625 5.171875 
L 45.40625 9.625 
Q 42.625 4.78125 38.28125 2.390625 
Q 33.9375 0 27.875 0 
Q 17.828125 0 11.671875 7.65625 
Q 5.515625 15.328125 5.515625 27.984375 
Q 5.515625 40.671875 11.671875 48.328125 
Q 17.828125 56 27.875 56 
Q 33.9375 56 38.28125 53.609375 
Q 42.625 51.21875 45.40625 46.390625 
L 45.40625 54.6875 
L 54.390625 54.6875 
z
" id="DejaVuSans-103"/>
     <path d="M 5.515625 54.6875 
L 48.1875 54.6875 
L 48.1875 46.484375 
L 14.40625 7.171875 
L 48.1875 7.171875 
L 48.1875 0 
L 4.296875 0 
L 4.296875 8.203125 
L 38.09375 47.515625 
L 5.515625 47.515625 
z
" id="DejaVuSans-122"/>
    </defs>
    <g transform="translate(237.688438 16.318125)scale(0.12 -0.12)">
     <use xlink:href="#DejaVuSans-79"/>
     <use x="78.710938" xlink:href="#DejaVuSans-110"/>
     <use x="142.089844" xlink:href="#DejaVuSans-101"/>
     <use x="203.613281" xlink:href="#DejaVuSans-32"/>
     <use x="235.400391" xlink:href="#DejaVuSans-98"/>
     <use x="298.876953" xlink:href="#DejaVuSans-105"/>
     <use x="326.660156" xlink:href="#DejaVuSans-116"/>
     <use x="365.869141" xlink:href="#DejaVuSans-32"/>
     <use x="397.65625" xlink:href="#DejaVuSans-111"/>
     <use x="458.837891" xlink:href="#DejaVuSans-102"/>
     <use x="494.042969" xlink:href="#DejaVuSans-32"/>
     <use x="525.830078" xlink:href="#DejaVuSans-100"/>
     <use x="589.306641" xlink:href="#DejaVuSans-101"/>
     <use x="650.830078" xlink:href="#DejaVuSans-109"/>
     <use x="748.242188" xlink:href="#DejaVuSans-111"/>
     <use x="809.423828" xlink:href="#DejaVuSans-100"/>
     <use x="872.900391" xlink:href="#DejaVuSans-117"/>
     <use x="936.279297" xlink:href="#DejaVuSans-108"/>
     <use x="964.0625" xlink:href="#DejaVuSans-97"/>
     <use x="1025.341797" xlink:href="#DejaVuSans-116"/>
     <use x="1064.550781" xlink:href="#DejaVuSans-101"/>
     <use x="1126.074219" xlink:href="#DejaVuSans-100"/>
     <use x="1189.550781" xlink:href="#DejaVuSans-32"/>
     <use x="1221.337891" xlink:href="#DejaVuSans-97"/>
     <use x="1282.617188" xlink:href="#DejaVuSans-110"/>
     <use x="1345.996094" xlink:href="#DejaVuSans-100"/>
     <use x="1409.472656" xlink:href="#DejaVuSans-32"/>
     <use x="1441.259766" xlink:href="#DejaVuSans-100"/>
     <use x="1504.736328" xlink:href="#DejaVuSans-105"/>
     <use x="1532.519531" xlink:href="#DejaVuSans-103"/>
     <use x="1595.996094" xlink:href="#DejaVuSans-105"/>
     <use x="1623.779297" xlink:href="#DejaVuSans-116"/>
     <use x="1662.988281" xlink:href="#DejaVuSans-105"/>
     <use x="1690.771484" xlink:href="#DejaVuSans-122"/>
     <use x="1743.261719" xlink:href="#DejaVuSans-101"/>
     <use x="1804.785156" xlink:href="#DejaVuSans-100"/>
     <use x="1868.261719" xlink:href="#DejaVuSans-32"/>
     <use x="1900.048828" xlink:href="#DejaVuSans-115"/>
     <use x="1952.148438" xlink:href="#DejaVuSans-105"/>
     <use x="1979.931641" xlink:href="#DejaVuSans-103"/>
     <use x="2043.408203" xlink:href="#DejaVuSans-110"/>
     <use x="2106.787109" xlink:href="#DejaVuSans-97"/>
     <use x="2168.066406" xlink:href="#DejaVuSans-108"/>
     <use x="2195.849609" xlink:href="#DejaVuSans-32"/>
     <use x="2227.636719" xlink:href="#DejaVuSans-116"/>
     <use x="2266.845703" xlink:href="#DejaVuSans-105"/>
     <use x="2294.628906" xlink:href="#DejaVuSans-109"/>
     <use x="2392.041016" xlink:href="#DejaVuSans-101"/>
     <use x="2453.564453" xlink:href="#DejaVuSans-32"/>
     <use x="2485.351562" xlink:href="#DejaVuSans-100"/>
     <use x="2548.828125" xlink:href="#DejaVuSans-111"/>
     <use x="2610.009766" xlink:href="#DejaVuSans-109"/>
     <use x="2707.421875" xlink:href="#DejaVuSans-97"/>
     <use x="2768.701172" xlink:href="#DejaVuSans-105"/>
     <use x="2796.484375" xlink:href="#DejaVuSans-110"/>
    </g>
   </g>
  </g>
  <g id="axes_2">
   <g id="patch_7">
    <path d="M 52.160938 554.542125 
L 766.400938 554.542125 
L 766.400938 312.622125 
L 52.160938 312.622125 
z
" style="fill:#ffffff;"/>
   </g>
   <g id="matplotlib.axis_3">
    <g id="xtick_10">
     <g id="line2d_16">
      <g>
       <use style="stroke:#000000;stroke-width:0.8;" x="84.626392" xlink:href="#m336556e6a6" y="554.542125"/>
      </g>
     </g>
     <g id="text_18">
      <!-- 0.00 -->
      <g transform="translate(73.49358 569.140562)scale(0.1 -0.1)">
       <use xlink:href="#DejaVuSans-48"/>
       <use x="63.623047" xlink:href="#DejaVuSans-46"/>
       <use x="95.410156" xlink:href="#DejaVuSans-48"/>
       <use x="159.033203" xlink:href="#DejaVuSans-48"/>
      </g>
     </g>
    </g>
    <g id="xtick_11">
     <g id="line2d_17">
      <g>
       <use style="stroke:#000000;stroke-width:0.8;" x="166.608931" xlink:href="#m336556e6a6" y="554.542125"/>
      </g>
     </g>
     <g id="text_19">
      <!-- 0.05 -->
      <g transform="translate(155.476119 569.140562)scale(0.1 -0.1)">
       <use xlink:href="#DejaVuSans-48"/>
       <use x="63.623047" xlink:href="#DejaVuSans-46"/>
       <use x="95.410156" xlink:href="#DejaVuSans-48"/>
       <use x="159.033203" xlink:href="#DejaVuSans-53"/>
      </g>
     </g>
    </g>
    <g id="xtick_12">
     <g id="line2d_18">
      <g>
       <use style="stroke:#000000;stroke-width:0.8;" x="248.591471" xlink:href="#m336556e6a6" y="554.542125"/>
      </g>
     </g>
     <g id="text_20">
      <!-- 0.10 -->
      <g transform="translate(237.458658 569.140562)scale(0.1 -0.1)">
       <use xlink:href="#DejaVuSans-48"/>
       <use x="63.623047" xlink:href="#DejaVuSans-46"/>
       <use x="95.410156" xlink:href="#DejaVuSans-49"/>
       <use x="159.033203" xlink:href="#DejaVuSans-48"/>
      </g>
     </g>
    </g>
    <g id="xtick_13">
     <g id="line2d_19">
      <g>
       <use style="stroke:#000000;stroke-width:0.8;" x="330.57401" xlink:href="#m336556e6a6" y="554.542125"/>
      </g>
     </g>
     <g id="text_21">
      <!-- 0.15 -->
      <g transform="translate(319.441198 569.140562)scale(0.1 -0.1)">
       <use xlink:href="#DejaVuSans-48"/>
       <use x="63.623047" xlink:href="#DejaVuSans-46"/>
       <use x="95.410156" xlink:href="#DejaVuSans-49"/>
       <use x="159.033203" xlink:href="#DejaVuSans-53"/>
      </g>
     </g>
    </g>
    <g id="xtick_14">
     <g id="line2d_20">
      <g>
       <use style="stroke:#000000;stroke-width:0.8;" x="412.55655" xlink:href="#m336556e6a6" y="554.542125"/>
      </g>
     </g>
     <g id="text_22">
      <!-- 0.20 -->
      <g transform="translate(401.423737 569.140562)scale(0.1 -0.1)">
       <use xlink:href="#DejaVuSans-48"/>
       <use x="63.623047" xlink:href="#DejaVuSans-46"/>
       <use x="95.410156" xlink:href="#DejaVuSans-50"/>
       <use x="159.033203" xlink:href="#DejaVuSans-48"/>
      </g>
     </g>
    </g>
    <g id="xtick_15">
     <g id="line2d_21">
      <g>
       <use style="stroke:#000000;stroke-width:0.8;" x="494.539089" xlink:href="#m336556e6a6" y="554.542125"/>
      </g>
     </g>
     <g id="text_23">
      <!-- 0.25 -->
      <g transform="translate(483.406277 569.140562)scale(0.1 -0.1)">
       <use xlink:href="#DejaVuSans-48"/>
       <use x="63.623047" xlink:href="#DejaVuSans-46"/>
       <use x="95.410156" xlink:href="#DejaVuSans-50"/>
       <use x="159.033203" xlink:href="#DejaVuSans-53"/>
      </g>
     </g>
    </g>
    <g id="xtick_16">
     <g id="line2d_22">
      <g>
       <use style="stroke:#000000;stroke-width:0.8;" x="576.521629" xlink:href="#m336556e6a6" y="554.542125"/>
      </g>
     </g>
     <g id="text_24">
      <!-- 0.30 -->
      <defs>
       <path d="M 40.578125 39.3125 
Q 47.65625 37.796875 51.625 33 
Q 55.609375 28.21875 55.609375 21.1875 
Q 55.609375 10.40625 48.1875 4.484375 
Q 40.765625 -1.421875 27.09375 -1.421875 
Q 22.515625 -1.421875 17.65625 -0.515625 
Q 12.796875 0.390625 7.625 2.203125 
L 7.625 11.71875 
Q 11.71875 9.328125 16.59375 8.109375 
Q 21.484375 6.890625 26.8125 6.890625 
Q 36.078125 6.890625 40.9375 10.546875 
Q 45.796875 14.203125 45.796875 21.1875 
Q 45.796875 27.640625 41.28125 31.265625 
Q 36.765625 34.90625 28.71875 34.90625 
L 20.21875 34.90625 
L 20.21875 43.015625 
L 29.109375 43.015625 
Q 36.375 43.015625 40.234375 45.921875 
Q 44.09375 48.828125 44.09375 54.296875 
Q 44.09375 59.90625 40.109375 62.90625 
Q 36.140625 65.921875 28.71875 65.921875 
Q 24.65625 65.921875 20.015625 65.03125 
Q 15.375 64.15625 9.8125 62.3125 
L 9.8125 71.09375 
Q 15.4375 72.65625 20.34375 73.4375 
Q 25.25 74.21875 29.59375 74.21875 
Q 40.828125 74.21875 47.359375 69.109375 
Q 53.90625 64.015625 53.90625 55.328125 
Q 53.90625 49.265625 50.4375 45.09375 
Q 46.96875 40.921875 40.578125 39.3125 
z
" id="DejaVuSans-51"/>
      </defs>
      <g transform="translate(565.388816 569.140562)scale(0.1 -0.1)">
       <use xlink:href="#DejaVuSans-48"/>
       <use x="63.623047" xlink:href="#DejaVuSans-46"/>
       <use x="95.410156" xlink:href="#DejaVuSans-51"/>
       <use x="159.033203" xlink:href="#DejaVuSans-48"/>
      </g>
     </g>
    </g>
    <g id="xtick_17">
     <g id="line2d_23">
      <g>
       <use style="stroke:#000000;stroke-width:0.8;" x="658.504168" xlink:href="#m336556e6a6" y="554.542125"/>
      </g>
     </g>
     <g id="text_25">
      <!-- 0.35 -->
      <g transform="translate(647.371356 569.140562)scale(0.1 -0.1)">
       <use xlink:href="#DejaVuSans-48"/>
       <use x="63.623047" xlink:href="#DejaVuSans-46"/>
       <use x="95.410156" xlink:href="#DejaVuSans-51"/>
       <use x="159.033203" xlink:href="#DejaVuSans-53"/>
      </g>
     </g>
    </g>
    <g id="xtick_18">
     <g id="line2d_24">
      <g>
       <use style="stroke:#000000;stroke-width:0.8;" x="740.486708" xlink:href="#m336556e6a6" y="554.542125"/>
      </g>
     </g>
     <g id="text_26">
      <!-- 0.40 -->
      <g transform="translate(729.353895 569.140562)scale(0.1 -0.1)">
       <use xlink:href="#DejaVuSans-48"/>
       <use x="63.623047" xlink:href="#DejaVuSans-46"/>
       <use x="95.410156" xlink:href="#DejaVuSans-52"/>
       <use x="159.033203" xlink:href="#DejaVuSans-48"/>
      </g>
     </g>
    </g>
    <g id="text_27">
     <!-- Time [s] -->
     <g transform="translate(388.798125 582.818688)scale(0.1 -0.1)">
      <use xlink:href="#DejaVuSans-84"/>
      <use x="61.037109" xlink:href="#DejaVuSans-105"/>
      <use x="88.820312" xlink:href="#DejaVuSans-109"/>
      <use x="186.232422" xlink:href="#DejaVuSans-101"/>
      <use x="247.755859" xlink:href="#DejaVuSans-32"/>
      <use x="279.542969" xlink:href="#DejaVuSans-91"/>
      <use x="318.556641" xlink:href="#DejaVuSans-115"/>
      <use x="370.65625" xlink:href="#DejaVuSans-93"/>
     </g>
    </g>
   </g>
   <g id="matplotlib.axis_4">
    <g id="ytick_6">
     <g id="line2d_25">
      <g>
       <use style="stroke:#000000;stroke-width:0.8;" x="52.160938" xlink:href="#m236d287992" y="543.545761"/>
      </g>
     </g>
     <g id="text_28">
      <!-- 0.0 -->
      <g transform="translate(29.257813 547.34498)scale(0.1 -0.1)">
       <use xlink:href="#DejaVuSans-48"/>
       <use x="63.623047" xlink:href="#DejaVuSans-46"/>
       <use x="95.410156" xlink:href="#DejaVuSans-48"/>
      </g>
     </g>
    </g>
    <g id="ytick_7">
     <g id="line2d_26">
      <g>
       <use style="stroke:#000000;stroke-width:0.8;" x="52.160938" xlink:href="#m236d287992" y="499.560307"/>
      </g>
     </g>
     <g id="text_29">
      <!-- 0.2 -->
      <g transform="translate(29.257813 503.359526)scale(0.1 -0.1)">
       <use xlink:href="#DejaVuSans-48"/>
       <use x="63.623047" xlink:href="#DejaVuSans-46"/>
       <use x="95.410156" xlink:href="#DejaVuSans-50"/>
      </g>
     </g>
    </g>
    <g id="ytick_8">
     <g id="line2d_27">
      <g>
       <use style="stroke:#000000;stroke-width:0.8;" x="52.160938" xlink:href="#m236d287992" y="455.574852"/>
      </g>
     </g>
     <g id="text_30">
      <!-- 0.4 -->
      <g transform="translate(29.257813 459.374071)scale(0.1 -0.1)">
       <use xlink:href="#DejaVuSans-48"/>
       <use x="63.623047" xlink:href="#DejaVuSans-46"/>
       <use x="95.410156" xlink:href="#DejaVuSans-52"/>
      </g>
     </g>
    </g>
    <g id="ytick_9">
     <g id="line2d_28">
      <g>
       <use style="stroke:#000000;stroke-width:0.8;" x="52.160938" xlink:href="#m236d287992" y="411.589398"/>
      </g>
     </g>
     <g id="text_31">
      <!-- 0.6 -->
      <g transform="translate(29.257813 415.388616)scale(0.1 -0.1)">
       <use xlink:href="#DejaVuSans-48"/>
       <use x="63.623047" xlink:href="#DejaVuSans-46"/>
       <use x="95.410156" xlink:href="#DejaVuSans-54"/>
      </g>
     </g>
    </g>
    <g id="ytick_10">
     <g id="line2d_29">
      <g>
       <use style="stroke:#000000;stroke-width:0.8;" x="52.160938" xlink:href="#m236d287992" y="367.603943"/>
      </g>
     </g>
     <g id="text_32">
      <!-- 0.8 -->
      <g transform="translate(29.257813 371.403162)scale(0.1 -0.1)">
       <use xlink:href="#DejaVuSans-48"/>
       <use x="63.623047" xlink:href="#DejaVuSans-46"/>
       <use x="95.410156" xlink:href="#DejaVuSans-56"/>
      </g>
     </g>
    </g>
    <g id="ytick_11">
     <g id="line2d_30">
      <g>
       <use style="stroke:#000000;stroke-width:0.8;" x="52.160938" xlink:href="#m236d287992" y="323.618489"/>
      </g>
     </g>
     <g id="text_33">
      <!-- 1.0 -->
      <g transform="translate(29.257813 327.417707)scale(0.1 -0.1)">
       <use xlink:href="#DejaVuSans-49"/>
       <use x="63.623047" xlink:href="#DejaVuSans-46"/>
       <use x="95.410156" xlink:href="#DejaVuSans-48"/>
      </g>
     </g>
    </g>
    <g id="text_34">
     <!-- Bit value -->
     <defs>
      <path d="M 19.671875 34.8125 
L 19.671875 8.109375 
L 35.5 8.109375 
Q 43.453125 8.109375 47.28125 11.40625 
Q 51.125 14.703125 51.125 21.484375 
Q 51.125 28.328125 47.28125 31.5625 
Q 43.453125 34.8125 35.5 34.8125 
z
M 19.671875 64.796875 
L 19.671875 42.828125 
L 34.28125 42.828125 
Q 41.5 42.828125 45.03125 45.53125 
Q 48.578125 48.25 48.578125 53.8125 
Q 48.578125 59.328125 45.03125 62.0625 
Q 41.5 64.796875 34.28125 64.796875 
z
M 9.8125 72.90625 
L 35.015625 72.90625 
Q 46.296875 72.90625 52.390625 68.21875 
Q 58.5 63.53125 58.5 54.890625 
Q 58.5 48.1875 55.375 44.234375 
Q 52.25 40.28125 46.1875 39.3125 
Q 53.46875 37.75 57.5 32.78125 
Q 61.53125 27.828125 61.53125 20.40625 
Q 61.53125 10.640625 54.890625 5.3125 
Q 48.25 0 35.984375 0 
L 9.8125 0 
z
" id="DejaVuSans-66"/>
      <path d="M 2.984375 54.6875 
L 12.5 54.6875 
L 29.59375 8.796875 
L 46.6875 54.6875 
L 56.203125 54.6875 
L 35.6875 0 
L 23.484375 0 
z
" id="DejaVuSans-118"/>
     </defs>
     <g transform="translate(23.178125 455.608688)rotate(-90)scale(0.1 -0.1)">
      <use xlink:href="#DejaVuSans-66"/>
      <use x="68.603516" xlink:href="#DejaVuSans-105"/>
      <use x="96.386719" xlink:href="#DejaVuSans-116"/>
      <use x="135.595703" xlink:href="#DejaVuSans-32"/>
      <use x="167.382812" xlink:href="#DejaVuSans-118"/>
      <use x="226.5625" xlink:href="#DejaVuSans-97"/>
      <use x="287.841797" xlink:href="#DejaVuSans-108"/>
      <use x="315.625" xlink:href="#DejaVuSans-117"/>
      <use x="379.003906" xlink:href="#DejaVuSans-101"/>
     </g>
    </g>
   </g>
   <g id="line2d_31">
    <path clip-path="url(#p8bb21c8d98)" d="M 84.626392 543.545761 
L 87.905731 323.618489 
L 91.18507 323.618489 
L 94.464409 543.545761 
L 97.743747 323.618489 
L 101.023086 543.545761 
L 110.861103 543.545761 
L 114.140442 323.618489 
L 117.41978 323.618489 
L 120.699119 543.545761 
L 123.978458 543.545761 
L 127.257797 323.618489 
L 130.537136 543.545761 
L 133.816475 323.618489 
L 137.095814 543.545761 
L 140.375152 323.618489 
L 143.654491 323.618489 
L 146.93383 543.545761 
L 150.213169 323.618489 
L 153.492508 543.545761 
L 163.330524 543.545761 
L 166.609863 323.618489 
L 169.889202 323.618489 
L 173.168541 543.545761 
L 176.44788 543.545761 
L 179.727218 323.618489 
L 183.006557 543.545761 
L 186.285896 323.618489 
L 189.565235 543.545761 
L 192.844574 323.618489 
L 196.123913 323.618489 
L 199.403252 543.545761 
L 202.68259 323.618489 
L 205.961929 543.545761 
L 215.799946 543.545761 
L 219.079285 323.618489 
L 222.358623 323.618489 
L 225.637962 543.545761 
L 228.917301 543.545761 
L 232.19664 323.618489 
L 235.475979 543.545761 
L 238.755318 323.618489 
L 242.034657 543.545761 
L 245.313995 323.618489 
L 248.593334 323.618489 
L 251.872673 543.545761 
L 255.152012 323.618489 
L 258.431351 543.545761 
L 268.269367 543.545761 
L 271.548706 323.618489 
L 274.828045 323.618489 
L 278.107384 543.545761 
L 281.386723 543.545761 
L 284.666061 323.618489 
L 287.9454 543.545761 
L 291.224739 323.618489 
L 294.504078 543.545761 
L 297.783417 323.618489 
L 301.062756 323.618489 
L 304.342095 543.545761 
L 307.621433 323.618489 
L 310.900772 543.545761 
L 320.738789 543.545761 
L 324.018128 323.618489 
L 327.297466 323.618489 
L 330.576805 543.545761 
L 333.856144 543.545761 
L 337.135483 323.618489 
L 340.414822 543.545761 
L 343.694161 323.618489 
L 346.973499 543.545761 
L 350.252838 323.618489 
L 353.532177 323.618489 
L 356.811516 543.545761 
L 360.090855 323.618489 
L 363.370194 543.545761 
L 373.20821 543.545761 
L 376.487549 323.618489 
L 379.766888 323.618489 
L 383.046227 543.545761 
L 386.325566 543.545761 
L 389.604904 323.618489 
L 392.884243 543.545761 
L 396.163582 323.618489 
L 399.442921 543.545761 
L 402.72226 323.618489 
L 406.001599 323.618489 
L 409.280937 543.545761 
L 412.560276 323.618489 
L 415.839615 543.545761 
L 425.677632 543.545761 
L 428.956971 323.618489 
L 432.236309 323.618489 
L 435.515648 543.545761 
L 438.794987 543.545761 
L 442.074326 323.618489 
L 445.353665 543.545761 
L 448.633004 323.618489 
L 451.912342 543.545761 
L 455.191681 323.618489 
L 458.47102 323.618489 
L 461.750359 543.545761 
L 465.029698 323.618489 
L 468.309037 543.545761 
L 478.147053 543.545761 
L 481.426392 323.618489 
L 484.705731 323.618489 
L 487.98507 543.545761 
L 491.264409 543.545761 
L 494.543747 323.618489 
L 497.823086 543.545761 
L 501.102425 323.618489 
L 504.381764 543.545761 
L 507.661103 323.618489 
L 510.940442 323.618489 
L 514.21978 543.545761 
L 517.499119 323.618489 
L 520.778458 543.545761 
L 530.616475 543.545761 
L 533.895814 323.618489 
L 537.175152 323.618489 
L 540.454491 543.545761 
L 543.73383 543.545761 
L 547.013169 323.618489 
L 550.292508 543.545761 
L 553.571847 323.618489 
L 556.851185 543.545761 
L 560.130524 323.618489 
L 563.409863 323.618489 
L 566.689202 543.545761 
L 569.968541 323.618489 
L 573.24788 543.545761 
L 583.085896 543.545761 
L 586.365235 323.618489 
L 589.644574 323.618489 
L 592.923913 543.545761 
L 596.203252 543.545761 
L 599.48259 323.618489 
L 602.761929 543.545761 
L 606.041268 323.618489 
L 609.320607 543.545761 
L 612.599946 323.618489 
L 615.879285 323.618489 
L 619.158623 543.545761 
L 622.437962 323.618489 
L 625.717301 543.545761 
L 635.555318 543.545761 
L 638.834657 323.618489 
L 642.113995 323.618489 
L 645.393334 543.545761 
L 648.672673 543.545761 
L 651.952012 323.618489 
L 655.231351 543.545761 
L 658.51069 323.618489 
L 661.790028 543.545761 
L 665.069367 543.545761 
L 668.348706 323.618489 
L 671.628045 543.545761 
L 688.024739 543.545761 
L 691.304078 323.618489 
L 701.142095 323.618489 
L 704.421433 543.545761 
L 714.25945 543.545761 
L 717.538789 323.618489 
L 720.818128 323.618489 
L 724.097466 543.545761 
L 727.376805 543.545761 
L 730.656144 323.618489 
L 733.935483 543.545761 
L 733.935483 543.545761 
" style="fill:none;stroke:#1f77b4;stroke-linecap:square;stroke-width:0.5;"/>
   </g>
   <g id="patch_8">
    <path d="M 52.160938 554.542125 
L 52.160938 312.622125 
" style="fill:none;stroke:#000000;stroke-linecap:square;stroke-linejoin:miter;stroke-width:0.8;"/>
   </g>
   <g id="patch_9">
    <path d="M 766.400938 554.542125 
L 766.400938 312.622125 
" style="fill:none;stroke:#000000;stroke-linecap:square;stroke-linejoin:miter;stroke-width:0.8;"/>
   </g>
   <g id="patch_10">
    <path d="M 52.160938 554.542125 
L 766.400938 554.542125 
" style="fill:none;stroke:#000000;stroke-linecap:square;stroke-linejoin:miter;stroke-width:0.8;"/>
   </g>
   <g id="patch_11">
    <path d="M 52.160938 312.622125 
L 766.400938 312.622125 
" style="fill:none;stroke:#000000;stroke-linecap:square;stroke-linejoin:miter;stroke-width:0.8;"/>
   </g>
   <g id="text_35">
    <!-- Decoded message time domain -->
    <defs>
     <path d="M 19.671875 64.796875 
L 19.671875 8.109375 
L 31.59375 8.109375 
Q 46.6875 8.109375 53.6875 14.9375 
Q 60.6875 21.78125 60.6875 36.53125 
Q 60.6875 51.171875 53.6875 57.984375 
Q 46.6875 64.796875 31.59375 64.796875 
z
M 9.8125 72.90625 
L 30.078125 72.90625 
Q 51.265625 72.90625 61.171875 64.09375 
Q 71.09375 55.28125 71.09375 36.53125 
Q 71.09375 17.671875 61.125 8.828125 
Q 51.171875 0 30.078125 0 
L 9.8125 0 
z
" id="DejaVuSans-68"/>
     <path d="M 48.78125 52.59375 
L 48.78125 44.1875 
Q 44.96875 46.296875 41.140625 47.34375 
Q 37.3125 48.390625 33.40625 48.390625 
Q 24.65625 48.390625 19.8125 42.84375 
Q 14.984375 37.3125 14.984375 27.296875 
Q 14.984375 17.28125 19.8125 11.734375 
Q 24.65625 6.203125 33.40625 6.203125 
Q 37.3125 6.203125 41.140625 7.25 
Q 44.96875 8.296875 48.78125 10.40625 
L 48.78125 2.09375 
Q 45.015625 0.34375 40.984375 -0.53125 
Q 36.96875 -1.421875 32.421875 -1.421875 
Q 20.0625 -1.421875 12.78125 6.34375 
Q 5.515625 14.109375 5.515625 27.296875 
Q 5.515625 40.671875 12.859375 48.328125 
Q 20.21875 56 33.015625 56 
Q 37.15625 56 41.109375 55.140625 
Q 45.0625 54.296875 48.78125 52.59375 
z
" id="DejaVuSans-99"/>
    </defs>
    <g transform="translate(313.976563 306.622125)scale(0.12 -0.12)">
     <use xlink:href="#DejaVuSans-68"/>
     <use x="77.001953" xlink:href="#DejaVuSans-101"/>
     <use x="138.525391" xlink:href="#DejaVuSans-99"/>
     <use x="193.505859" xlink:href="#DejaVuSans-111"/>
     <use x="254.6875" xlink:href="#DejaVuSans-100"/>
     <use x="318.164062" xlink:href="#DejaVuSans-101"/>
     <use x="379.6875" xlink:href="#DejaVuSans-100"/>
     <use x="443.164062" xlink:href="#DejaVuSans-32"/>
     <use x="474.951172" xlink:href="#DejaVuSans-109"/>
     <use x="572.363281" xlink:href="#DejaVuSans-101"/>
     <use x="633.886719" xlink:href="#DejaVuSans-115"/>
     <use x="685.986328" xlink:href="#DejaVuSans-115"/>
     <use x="738.085938" xlink:href="#DejaVuSans-97"/>
     <use x="799.365234" xlink:href="#DejaVuSans-103"/>
     <use x="862.841797" xlink:href="#DejaVuSans-101"/>
     <use x="924.365234" xlink:href="#DejaVuSans-32"/>
     <use x="956.152344" xlink:href="#DejaVuSans-116"/>
     <use x="995.361328" xlink:href="#DejaVuSans-105"/>
     <use x="1023.144531" xlink:href="#DejaVuSans-109"/>
     <use x="1120.556641" xlink:href="#DejaVuSans-101"/>
     <use x="1182.080078" xlink:href="#DejaVuSans-32"/>
     <use x="1213.867188" xlink:href="#DejaVuSans-100"/>
     <use x="1277.34375" xlink:href="#DejaVuSans-111"/>
     <use x="1338.525391" xlink:href="#DejaVuSans-109"/>
     <use x="1435.9375" xlink:href="#DejaVuSans-97"/>
     <use x="1497.216797" xlink:href="#DejaVuSans-105"/>
     <use x="1525" xlink:href="#DejaVuSans-110"/>
    </g>
   </g>
  </g>
 </g>
 <defs>
  <clipPath id="p9aa8ac1d90">
   <rect height="241.92" width="714.24" x="52.160938" y="22.318125"/>
  </clipPath>
  <clipPath id="p8bb21c8d98">
   <rect height="241.92" width="714.24" x="52.160938" y="312.622125"/>
  </clipPath>
 </defs>
</svg>
